{
    "asset": {
        "version": "2.0",
        "generator": "Open Asset Import Library (assimp v5.2.cf7d3637)"
    },
    "extensionsUsed": [
        "KHR_materials_volume",
        "FB_ngon_encoding"
    ],
    "accessors": [
        {
            "bufferView": 0,
            "byteOffset": 0,
            "componentType": 5126,
            "count": 29991,
            "type": "VEC3",
            "max": [
                0.32460400462150576,
                1.0015599727630616,
                0.22815999388694764
            ],
            "min": [
                -0.3083910048007965,
                -1.0012600421905518,
                -0.25071099400520327
            ]
        },
        {
            "bufferView": 1,
            "byteOffset": 0,
            "componentType": 5126,
            "count": 29991,
            "type": "VEC3",
            "max": [
                0.9997634887695313,
                0.993962287902832,
                0.9997024536132813
            ],
            "min": [
                -0.9999821782112122,
                -0.9999918341636658,
                -0.9999963045120239
            ]
        },
        {
            "bufferView": 2,
            "byteOffset": 0,
            "componentType": 5126,
            "count": 29991,
            "type": "VEC2",
            "max": [
                1.0,
                1.0
            ],
            "min": [
                0.00002288818359375,
                0.0049285888671875
            ]
        },
        {
            "bufferView": 3,
            "byteOffset": 0,
            "componentType": 5125,
            "count": 29991,
            "type": "SCALAR",
            "max": [
                29990
            ],
            "min": [
                0
            ]
        }
    ],
    "buffers": [
        {
            "byteLength": 1079676,
            "uri": "result.bin"
        }
    ],
    "bufferViews": [
        {
            "buffer": 0,
            "byteOffset": 0,
            "byteLength": 359892,
            "target": 34962
        },
        {
            "buffer": 0,
            "byteOffset": 359892,
            "byteLength": 359892,
            "target": 34962
        },
        {
            "buffer": 0,
            "byteOffset": 719784,
            "byteLength": 239928,
            "target": 34962
        },
        {
            "buffer": 0,
            "byteOffset": 959712,
            "byteLength": 119964,
            "target": 34963
        }
    ],
    "images": [
        {
            "uri": "data:image/jpeg;base64,"
        }
    ],
    "materials": [
        {
            "name": "material",
            "pbrMetallicRoughness": {
                "baseColorTexture": {
                    "index": 0
                },
                "metallicFactor": 0.0,
                "roughnessFactor": 0.800000011920929
            },
            "doubleSided": true
        },
        {
            "name": "material"
        }
    ],
    "meshes": [
        {
            "name": "meshes[0]",
            "primitives": [
                {
                    "mode": 4,
                    "material": 0,
                    "indices": 3,
                    "attributes": {
                        "POSITION": 0,
                        "NORMAL": 1,
                        "TEXCOORD_0": 2
                    }
                }
            ]
        }
    ],
    "nodes": [
        {
            "name": "nodes[0]",
            "mesh": 0
        }
    ],
    "samplers": [
        {
            "magFilter": 9729,
            "minFilter": 9987
        }
    ],
    "scenes": [
        {
            "nodes": [
                0
            ]
        }
    ],
    "textures": [
        {
            "source": 0,
            "sampler": 0
        }
    ],
    "scene": 0
}