{
    "asset": {
        "version": "2.0",
        "generator": "Open Asset Import Library (assimp v5.2.cf7d3637)"
    },
    "extensionsUsed": [
        "KHR_materials_volume",
        "FB_ngon_encoding"
    ],
    "accessors": [
        {
            "bufferView": 0,
            "byteOffset": 0,
            "componentType": 5126,
            "count": 113958,
            "type": "VEC3",
            "max": [
                75.82215118408203,
                78.83319091796875,
                32.151824951171878
            ],
            "min": [
                -75.60184478759766,
                -19.713346481323243,
                -0.10245687514543534
            ]
        },
        {
            "bufferView": 1,
            "byteOffset": 0,
            "componentType": 5126,
            "count": 113958,
            "type": "VEC3",
            "max": [
                0.9999998807907105,
                0.9999895691871643,
                0.999924898147583
            ],
            "min": [
                -0.9999997019767761,
                -0.9998416304588318,
                -0.999959409236908
            ]
        },
        {
            "bufferView": 2,
            "byteOffset": 0,
            "componentType": 5125,
            "count": 113958,
            "type": "SCALAR",
            "max": [
                113957
            ],
            "min": [
                0
            ]
        }
    ],
  "images": [
    {
      "uri": "textures/Ani_Fire_A.png"
    },
    {
      "uri": "textures/Dragon_Bump_Col2.jpg"
    },
    {
      "uri": "textures/Dragon_ground_color.jpg"
    },
    {
      "uri": "textures/Dragon_Nor.jpg"
    },
    {
      "uri": "textures/Dragon_Nor_mirror2.jpg"
    },
    {
      "uri": "textures/Fire_A_2.png"
    },
    {
      "uri": "textures/Floor_C.jpg"
    },
    {
      "uri": "textures/Floor_N.jpg"
    },
    {
      "uri": "textures/Floor_S.jpg"
    }
  ],
    "buffers": [
        {
            "byteLength": 3190824,
            "uri": "result.bin"
        }
    ],
    "bufferViews": [
        {
            "buffer": 0,
            "byteOffset": 0,
            "byteLength": 1367496,
            "target": 34962
        },
        {
            "buffer": 0,
            "byteOffset": 1367496,
            "byteLength": 1367496,
            "target": 34962
        },
        {
            "buffer": 0,
            "byteOffset": 2734992,
            "byteLength": 455832,
            "target": 34963
        }
    ],
    "materials": [
        {
            "name": "DefaultMaterial",
            "pbrMetallicRoughness": {
                "metallicFactor": 0.0
            }
        }
    ],
    "meshes": [
        {
            "primitives": [
                {
                    "mode": 4,
                    "material": 0,
                    "indices": 2,
                    "attributes": {
                        "POSITION": 0,
                        "NORMAL": 1
                    }
                }
            ]
        }
    ],
    "nodes": [
        {
            "name": "<STL_BINARY>",
            "children": [
                1
            ]
        },
        {
            "name": "node",
            "mesh": 0
        }
    ],
    "scenes": [
        {
            "nodes": [
                0
            ]
        }
    ],
    "scene": 0
}